<?xml version="1.0" standalone="no"?><!DOCTYPE svg PUBLIC "-//W3C//DTD SVG 1.1//EN" "http://www.w3.org/Graphics/SVG/1.1/DTD/svg11.dtd"><svg t="1516170231083" class="icon" style="" viewBox="0 0 1115 1024" version="1.1" xmlns="http://www.w3.org/2000/svg" p-id="563" xmlns:xlink="http://www.w3.org/1999/xlink" width="217.7734375" height="200"><defs><style type="text/css"></style></defs><path d="M1085.920746 715.425121 525.55936 368.82108l75.617212-122.306256 61.222778 37.843431c33.780486 20.848712 77.985329 10.47079 98.926909-23.309696 20.918363-33.850137 10.377923-78.078196-23.309696-98.996559l-61.222778-37.843431-122.236605-75.617212-61.153128-37.843431c-33.850137-20.848712-78.078196-10.47079-98.926909 23.379347-20.918363 33.780486-10.54044 78.078196 23.240046 98.926909l61.153128 37.913082-107.052799 173.197545-12.629955 20.361159-107.122449 173.267195-61.083477-37.843431c-33.850137-20.848712-78.147847-10.447573-98.996559 23.309696-20.918363 33.780486-10.47079 78.078196 23.309696 98.996559l61.153128 37.773781 122.306256 75.686863L359.86085 773.49041c33.780486 20.895146 77.985329 10.517224 98.926909-23.309696 20.918363-33.850137 10.47079-78.078196-23.309696-99.019776l-61.153128-37.750564 75.617212-122.306256L1010.396401 837.661726c28.092363 17.412622 65.169639 8.706311 82.582261-19.386052l12.629955-20.50046C1122.998022 769.68285 1114.291711 732.837743 1085.920746 715.425121z" p-id="564"></path><path d="M0 884.699022l441.119752 0 0 139.300974-441.119752 0 0-139.300974Z" p-id="565"></path></svg>