<?xml version="1.0" standalone="no"?><!DOCTYPE svg PUBLIC "-//W3C//DTD SVG 1.1//EN" "http://www.w3.org/Graphics/SVG/1.1/DTD/svg11.dtd"><svg t="1513590859404" class="icon" style="" viewBox="0 0 1024 1024" version="1.1" xmlns="http://www.w3.org/2000/svg" p-id="72442" xmlns:xlink="http://www.w3.org/1999/xlink" width="200" height="200"><defs><style type="text/css"></style></defs><path d="M782.6999999999999 97.49999999999994c-6.9 4.440892098500626e-16-12.499999999999998 2.200000000000003-16.999999999999996 6.700000000000001s-6.6999999999999975 10.100000000000001-6.699999999999997 17l1.7053025658242404e-13 781.7c4.440892098500626e-16 6.9 2.200000000000003 12.499999999999998 6.700000000000001 16.999999999999996s10.100000000000001 6.6999999999999975 17 6.699999999999997l51.5-1.0658141036401503e-14c6.9-4.440892098500626e-16 12.499999999999998-2.200000000000003 16.999999999999996-6.700000000000001s6.6999999999999975-10.100000000000001 6.699999999999997-17L857.8999999999999 121.19999999999999c-4.440892098500626e-16-6.9-2.200000000000003-12.499999999999998-6.700000000000001-16.999999999999996s-10.100000000000001-6.6999999999999975-17-6.699999999999997l-51.5 1.0658141036401503e-14z m-227.99999999999994 822.3999999999999c4.499999999999999-4.5 6.6999999999999975-10.100000000000001 6.699999999999997-17L561.3999999999999 121.19999999999993c-4.440892098500626e-16-6.9-2.200000000000003-12.499999999999998-6.700000000000001-16.999999999999996s-10.100000000000001-6.6999999999999975-17-6.699999999999997l-51.5 1.0658141036401503e-14c-6.9 4.440892098500626e-16-12.499999999999998 2.200000000000003-16.999999999999996 6.700000000000001s-6.6999999999999975 10.100000000000001-6.699999999999997 17l1.7053025658242404e-13 781.7c4.440892098500626e-16 6.9 2.200000000000003 12.499999999999998 6.700000000000001 16.999999999999996s10.100000000000001 6.6999999999999975 17 6.699999999999997l51.5-1.0658141036401503e-14c6.9-0.10000000000000053 12.599999999999998-2.3000000000000025 16.999999999999996-6.700000000000001z m-313.4 6.60000000000008c6.9-4.440892098500626e-16 12.499999999999998-2.200000000000003 16.999999999999996-6.700000000000001s6.6999999999999975-10.100000000000001 6.699999999999997-17L264.9999999999999 121.10000000000008c-4.440892098500626e-16-6.9-2.200000000000003-12.499999999999998-6.700000000000001-16.999999999999996s-10.100000000000001-6.6999999999999975-17-6.699999999999997l-51.5 1.0658141036401503e-14c-6.9 4.440892098500626e-16-12.499999999999998 2.200000000000003-16.999999999999996 6.700000000000001s-6.6999999999999975 10.100000000000001-6.699999999999997 17l1.7053025658242404e-13 781.7c4.440892098500626e-16 6.9 2.200000000000003 12.499999999999998 6.700000000000001 16.999999999999996s10.100000000000001 6.6999999999999975 17 6.699999999999997l51.5-1.0658141036401503e-14z" p-id="72443"></path></svg>