<?xml version="1.0" standalone="no"?><!DOCTYPE svg PUBLIC "-//W3C//DTD SVG 1.1//EN" "http://www.w3.org/Graphics/SVG/1.1/DTD/svg11.dtd"><svg t="1505184272909" class="icon" style="" viewBox="0 0 1024 1024" version="1.1" xmlns="http://www.w3.org/2000/svg" p-id="1659" xmlns:xlink="http://www.w3.org/1999/xlink" width="200" height="200"><defs><style type="text/css"></style></defs><path d="M511.488 64c-247.808 0-448.512 200.704-448.512 448 0 247.808 200.704 448.512 448.512 448.512 247.808 0 448-200.704 448-448.512 0-247.296-200.704-448-448-448z m196.096 584.192c16.896 16.896 16.896 43.52 0 60.416-16.896 16.896-43.52 16.896-60.416 0l-136.192-135.68-136.192 136.192c-16.896 16.896-44.032 16.896-60.416 0-16.896-16.896-16.896-43.52 0-60.416l136.192-136.192-135.68-135.68c-16.896-16.896-16.896-43.52 0-60.416 16.896-16.896 43.52-16.896 60.416 0l136.192 136.192 136.192-136.192c16.896-16.896 43.52-16.896 60.416 0 16.896 16.896 16.896 43.52 0 60.416L571.904 512l135.68 136.192z" fill="" p-id="1660"></path></svg>