<?xml version="1.0" standalone="no"?><!DOCTYPE svg PUBLIC "-//W3C//DTD SVG 1.1//EN" "http://www.w3.org/Graphics/SVG/1.1/DTD/svg11.dtd"><svg t="1502271292965" class="icon" style="" viewBox="0 0 1024 1024" version="1.1" xmlns="http://www.w3.org/2000/svg" p-id="1002" xmlns:xlink="http://www.w3.org/1999/xlink" width="200" height="200"><defs><style type="text/css"></style></defs><path d="M510.546 75.818c-246.712 0-446.71 199.998-446.71 446.709 0 246.705 199.998 446.703 446.71 446.703 246.711 0 446.709-199.997 446.709-446.703 0-246.711-199.998-446.709-446.709-446.709zM509.776 884.882c-200.249 0-362.585-162.336-362.585-362.588s162.336-362.588 362.585-362.588c200.252 0 362.588 162.336 362.588 362.588 0 200.253-162.336 362.588-362.588 362.588zM478.819 358.318c16.097 16.097 16.097 42.195 0 58.292l0 0c-16.097 16.097-42.195 16.097-58.292 0l-56.797-56.797c-16.097-16.097-16.097-42.195 0-58.292l0 0c16.097-16.097 42.195-16.097 58.292 0l56.797 56.797zM599.162 416.606c-16.097 16.097-42.195 16.097-58.293 0l0 0c-16.096-16.096-16.096-42.193 0-58.289l56.798-56.795c16.097-16.097 42.195-16.097 58.292 0l0 0c16.097 16.096 16.097 42.193 0 58.289l-56.797 56.795zM683.313 488.524c0 22.429-18.975 40.61-42.381 40.61l-263.324 0c-23.405 0-42.38-18.181-42.38-40.61l0 0c0-22.429 18.974-40.61 42.38-40.61l263.324 0c23.406 0 42.381 18.181 42.381 40.61l0 0zM683.313 619.583c0 22.428-18.975 40.608-42.381 40.608l-263.324 0c-23.405 0-42.38-18.18-42.38-40.608l0 0c0-22.428 18.974-40.609 42.38-40.609l263.324 0c23.406 0.001 42.381 18.181 42.381 40.609l0 0zM509.255 453.752c25.635 0 46.413 18.975 46.413 42.381l0 234.677c0 23.405-20.779 42.379-46.413 42.379l0 0c-25.629 0-46.41-18.974-46.41-42.379l0-234.677c0.001-23.406 20.781-42.381 46.41-42.381l0 0z" p-id="1003"></path></svg>