<?xml version="1.0" standalone="no"?><!DOCTYPE svg PUBLIC "-//W3C//DTD SVG 1.1//EN" "http://www.w3.org/Graphics/SVG/1.1/DTD/svg11.dtd"><svg t="1501644545147" class="icon" style="" viewBox="0 0 1025 1024" version="1.1" xmlns="http://www.w3.org/2000/svg" p-id="2109" xmlns:xlink="http://www.w3.org/1999/xlink" width="200.1953125" height="200"><defs><style type="text/css"></style></defs><path d="M762.744903 1023.967999l-112.764455 0c-22.815283 0-41.150706-17.951436-41.822685-40.798717l0-286.486994c0-53.086331-43.166643-96.316972-96.124978-96.316972-53.054332 0-96.188976 43.230641-96.188976 96.316972l-0.127996 285.431027c0 23.103274-18.783409 41.886683-41.854684 41.886683L261.032675 1023.999998c-65.629937 0-119.004259-53.470319-119.004259-119.132255L142.028417 551.59885 41.839566 551.59885c-16.767473 0-31.902997-10.015685-38.558788-25.599195-6.559794-15.807503-3.103902-33.662942 8.767724-45.694563L474.049979 11.967814c15.647508-15.999497 44.094614-15.999497 59.870118 0.255992l87.325255 90.173165c0.63998-22.463294 19.199396-40.574724 41.822685-40.574724l99.676866 0c23.103274 0 41.822685 18.783409 41.822685 41.854684l0 186.650132 205.849529 188.570072c12.7356 11.679633 16.991466 29.759064 10.751662 45.982554-6.175806 15.999497-21.887312 26.783158-39.038773 26.783158l-100.316846 0 0 353.236895C881.81316 970.49768 828.406839 1023.967999 762.744903 1023.967999z" p-id="2110"></path></svg>