<?xml version="1.0" standalone="no"?><!DOCTYPE svg PUBLIC "-//W3C//DTD SVG 1.1//EN" "http://www.w3.org/Graphics/SVG/1.1/DTD/svg11.dtd"><svg t="1513587517537" class="icon" style="" viewBox="0 0 1024 1024" version="1.1" xmlns="http://www.w3.org/2000/svg" p-id="49290" xmlns:xlink="http://www.w3.org/1999/xlink" width="200" height="200"><defs><style type="text/css"></style></defs><path d="M508.057713 66.410526c-245.094114 0-443.748546 198.674898-443.748546 443.748546 0 245.054205 198.654432 443.769013 443.748546 443.769013 245.093091 0 443.74957-198.714807 443.74957-443.769013C951.807283 265.085424 753.150804 66.410526 508.057713 66.410526zM490.981802 747.553831c28.931936 3.357468 91.587951-72.522734 105.10071-70.947865 4.812609 0.553609 10.873652 7.167237 9.848299 15.829524-3.255137 27.989471-130.060171 134.524856-227.523947 123.201973-34.748409-4.074805-57.005318-23.25975-52.724829-59.932997 5.405103-46.336328 47.422056-121.625058 56.102762-137.290853l87.288019-161.982208c8.78406-16.565281 1.12666-26.28055-6.613628-27.160593-35.729759-4.146437-91.813079 74.399477-109.156072 72.392774-6.797823-0.778736-11.773138-8.251941-11.096732-14.027481 2.02717-17.36346 49.202609-52.949956 63.207577-64.026222 42.856064-32.19833 96.318696-54.342676 152.298662-47.831378 41.503253 4.811586 82.96762 35.06461 37.328164 124.675534l-91.38329 180.083471c-7.453762 13.802354-20.88568 36.713156-22.687722 52.1528C480.191038 739.426733 483.240491 746.654344 490.981802 747.553831zM690.413947 277.729395c-5.179976 44.421722-45.659923 72.985268-89.110527 67.917856-39.557948-4.596691-62.593594-33.703613-58.008158-73.272817 4.975315-42.496883 45.660946-72.944336 88.148619-67.989487C670.062434 208.858842 695.001429 238.169401 690.413947 277.729395z" p-id="49291"></path></svg>