<?xml version="1.0" standalone="no"?><!DOCTYPE svg PUBLIC "-//W3C//DTD SVG 1.1//EN" "http://www.w3.org/Graphics/SVG/1.1/DTD/svg11.dtd"><svg t="1501644918848" class="icon" style="" viewBox="0 0 1024 1024" version="1.1" xmlns="http://www.w3.org/2000/svg" p-id="7586" xmlns:xlink="http://www.w3.org/1999/xlink" width="200" height="200"><defs><style type="text/css"></style></defs><path d="M824 278.4H544v-22.336a136.128 136.128 0 0 0-136-136h-208A136.128 136.128 0 0 0 64 256.064v509.568c0 75.008 64.576 138.304 140.992 138.304h619.008A136.128 136.128 0 0 0 960 767.936V414.4a136.128 136.128 0 0 0-136-136zM896 767.936c0 39.68-32.32 72-72 72H204.992c-40.32 0-76.992-35.456-76.992-74.304V256.064c0-39.68 32.32-72 72-72h208c39.68 0 72 32.32 72 72V342.4h344c39.68 0 72 32.32 72 72v353.536z" p-id="7587"></path></svg>