<?xml version="1.0" standalone="no"?><!DOCTYPE svg PUBLIC "-//W3C//DTD SVG 1.1//EN" "http://www.w3.org/Graphics/SVG/1.1/DTD/svg11.dtd"><svg t="1513584798533" class="icon" style="" viewBox="0 0 1024 1024" version="1.1" xmlns="http://www.w3.org/2000/svg" p-id="8603" xmlns:xlink="http://www.w3.org/1999/xlink" width="200" height="200"><defs><style type="text/css"></style></defs><path d="M654.2592 402.25536l-42.37568-45.2416L835.86432 117.87648c-6.05312-6.46272-18.16064-6.46272-24.21376-6.46272H169.97504c-12.10624 0-18.16064 6.46272-24.21376 12.92672-6.05312 6.46272-12.10624 12.92672-12.10624 25.85216v730.33472c0 6.46272 6.05312 19.38944 12.10624 25.85216 6.05312 6.46272 12.10752 12.92672 24.21376 12.92672h684.04992c6.05312 0 18.16064-6.464 24.21376-12.92672 6.05312-6.46272 12.10752-12.92672 12.10752-25.85216V195.43424c0-12.92672 0-19.38944-6.05312-25.85216L654.2592 402.25536z m-108.96384 25.85216l24.21376-25.85216 42.37312 45.2416-24.21376 25.85216h-42.37312v-45.2416zM260.77824 298.84544h157.39136v38.77888H260.77824v-38.77888z m0 135.7248h157.39136v38.77888H260.77824v-38.77888z m0 129.26336h157.39136v38.77888H260.77824v-38.77888z m496.3904 174.50496H260.77824v-38.77888h496.3904v38.77888z" p-id="8604"></path></svg>