<?xml version="1.0" standalone="no"?><!DOCTYPE svg PUBLIC "-//W3C//DTD SVG 1.1//EN" "http://www.w3.org/Graphics/SVG/1.1/DTD/svg11.dtd"><svg t="1513591086823" class="icon" style="" viewBox="0 0 1024 1024" version="1.1" xmlns="http://www.w3.org/2000/svg" p-id="75514" xmlns:xlink="http://www.w3.org/1999/xlink" width="200" height="200"><defs><style type="text/css"></style></defs><path d="M511.999488 896.843972c-209.051223 0-380.092761-171.041538-380.092761-380.092761 0-90.273003 33.257451-180.544983 95.02319-251.812119 19.004843-19.004843 47.512107-23.75503 66.515926-4.751211 19.004843 19.003819 23.756053 47.511083 4.751211 66.515926-47.512107 52.263317-71.26816 118.779244-71.26816 190.046381 0 156.785859 128.281665 285.069571 285.069571 285.069571 156.788929 0 285.069571-128.282688 285.069571-285.069571 0-71.26816-23.756053-137.784086-71.26816-190.046381-19.004843-19.004843-14.253632-47.512107 4.751211-66.515926 19.004843-19.003819 47.512107-14.253632 66.51695 4.751211 61.763692 71.267137 95.022167 156.787906 95.022167 251.812119C892.091226 725.802434 721.049688 896.843972 511.999488 896.843972z" p-id="75515"></path><path d="M559.511595 412.225599c0 23.756053-19.004843 47.512107-47.512107 47.512107l0 0c-28.506241 0-47.512107-19.003819-47.512107-47.512107L464.487382 174.668135c0-23.756053 19.004843-47.512107 47.512107-47.512107l0 0c23.75503 0 47.512107 19.004843 47.512107 47.512107L559.511595 412.225599z" p-id="75516"></path></svg>