<?xml version="1.0" standalone="no"?><!DOCTYPE svg PUBLIC "-//W3C//DTD SVG 1.1//EN" "http://www.w3.org/Graphics/SVG/1.1/DTD/svg11.dtd"><svg t="1501644691673" class="icon" style="" viewBox="0 0 1024 1024" version="1.1" xmlns="http://www.w3.org/2000/svg" p-id="4696" xmlns:xlink="http://www.w3.org/1999/xlink" width="200" height="200"><defs><style type="text/css"></style></defs><path d="M662.549636 0a299.15498 299.15498 0 1 0 299.922634 299.129392A299.845869 299.845869 0 0 0 662.549636 0z m146.852316 275.715928H690.696969v56.294667h118.602629v56.294668H690.696969v107.036633h-56.473786v-107.036633h-118.602629v-56.294668h118.602629v-56.294667h-118.602629v-56.294668h78.863711l-76.458394-76.765455 40.071568-39.713329 104.349843 104.912789 104.349842-104.912789 40.097157 39.713329-76.458394 76.765455h78.863711v56.294668zM312.14092 972.362437l-174.513469-0.179119V573.335599h162.461292a2579.319306 2579.319306 0 0 1 328.530561 98.64361l4.452397 1.458544c23.029637 7.343895 41.913939 18.270178 41.913938 77.891349 0 59.160578-47.441052 80.24549-91.837073 80.245489h-5.39917l-188.331251-23.439052-3.88945 40.941576 189.201259 23.566995c1.714429 0 4.273277 0.204708 6.985657 0.204708 9.646859 0 95.061222-2.302964 119.037633-82.471688a111.258734 111.258734 0 0 0-0.895597-72.313059l-3.88945-10.363336 9.825979-5.117697a4685.149283 4685.149283 0 0 0 118.704982-63.35709 110.030486 110.030486 0 0 1 54.298766-13.638662 136.514568 136.514568 0 0 1 128.505372 89.789994c6.42271 22.338748 13.17807 79.324304-62.512669 126.560648-112.84522 73.31101-294.26758 171.442851-301.944125 175.613774l-11.361287 6.141236z m-299.385277 0.972362V573.335599h74.974261v399.922435H12.602112z" p-id="4697"></path></svg>