<?xml version="1.0" standalone="no"?><!DOCTYPE svg PUBLIC "-//W3C//DTD SVG 1.1//EN" "http://www.w3.org/Graphics/SVG/1.1/DTD/svg11.dtd"><svg t="1505712877201" class="icon" style="" viewBox="0 0 1024 1024" version="1.1" xmlns="http://www.w3.org/2000/svg" p-id="2909" xmlns:xlink="http://www.w3.org/1999/xlink" width="200" height="200"><defs><style type="text/css"></style></defs><path d="M511.657704 506.078127c-26.318412 0-47.679929 21.446451-47.679929 47.812959 0 18.632359 10.720156 34.532491 26.198685 42.462091v61.21213c0 2.733251 2.260483 5.036713 5.068436 5.036713h32.94125c2.768043 0 5.028527-2.303462 5.028526-5.036713v-61.21213c15.479553-7.9296 26.198685-23.829731 26.1598-42.462091 0.001023-26.366508-21.364587-47.812959-47.716768-47.812959zM511.733429 278.787494c-52.708456 0-95.631034 36.866652-95.631034 89.681532v42.023092h191.18839v-42.023092c0-52.81488-42.846854-89.681532-95.557356-89.681532z" p-id="2910"></path><path d="M511.676124 64.076364c-247.255337 0-447.696462 200.440102-447.696462 447.696462s200.441125 447.696462 447.696462 447.696462c247.25636 0 447.696462-200.440102 447.696461-447.696462s-200.440102-447.696462-447.696461-447.696462z m231.266177 639.606283c0 21.253046-17.114796 38.438451-38.285978 38.438451H318.732763c-21.170159 0-38.321794-17.186428-38.321794-38.438451v-254.79301c0-21.211091 17.152658-38.397518 38.321794-38.397519h37.757952v-50.694589c0-85.744873 69.631894-140.122341 155.204851-140.122341 85.573981 0 155.125033 54.377468 155.125034 140.122341v50.694589h37.796837c21.170159 0 38.325887 17.187451 38.325887 38.397519v254.79301z" p-id="2911"></path></svg>