<?xml version="1.0" standalone="no"?><!DOCTYPE svg PUBLIC "-//W3C//DTD SVG 1.1//EN" "http://www.w3.org/Graphics/SVG/1.1/DTD/svg11.dtd"><svg t="1505184256109" class="icon" style="" viewBox="0 0 1024 1024" version="1.1" xmlns="http://www.w3.org/2000/svg" p-id="999" xmlns:xlink="http://www.w3.org/1999/xlink" width="200" height="200"><defs><style type="text/css"></style></defs><path d="M886.720915 793.185101 777.209756 683.684174c-10.07138-10.083659-26.412556-10.083659-36.492122 0l-2.949168 2.947122c0 0-54.103222-53.791114-55.537897-54.692646 42.85811-53.354162 68.520583-121.108289 68.520583-194.864106 0-171.993213-139.423423-311.413566-311.407426-311.413566-171.984003 0-311.406402 139.4224-311.406402 311.413566 0 171.97377 139.4224 311.406402 311.406402 311.406402 73.768097 0 141.53041-25.668613 194.883549-68.536956 0.902556 1.431605 54.689576 55.524594 54.689576 55.524594l-2.953262 2.951215c-10.07138 10.084683-10.07138 26.437116 0 36.506449l109.50502 109.503996c10.081613 10.083659 26.421766 10.083659 36.503379 0l54.750975-54.751998C896.795365 819.594587 896.795365 803.26569 886.720915 793.185101zM439.343725 628.522854c-105.736183 0-191.447287-85.712127-191.447287-191.44831 0-105.760742 85.711104-191.472869 191.447287-191.472869 105.748463 0 191.470823 85.712127 191.470823 191.472869C630.814548 542.809703 545.093211 628.522854 439.343725 628.522854z" p-id="1000"></path></svg>