<?xml version="1.0" standalone="no"?><!DOCTYPE svg PUBLIC "-//W3C//DTD SVG 1.1//EN" "http://www.w3.org/Graphics/SVG/1.1/DTD/svg11.dtd"><svg t="1513590784497" class="icon" style="" viewBox="0 0 1024 1024" version="1.1" xmlns="http://www.w3.org/2000/svg" p-id="68906" xmlns:xlink="http://www.w3.org/1999/xlink" width="200" height="200"><defs><style type="text/css"></style></defs><path d="M97.5 241.3c0 6.9 2.2 12.5 6.7 17s10.1 6.7 17 6.7h781.7c6.9 0 12.5-2.2 17-6.7s6.7-10.1 6.7-17v-51.5c0-6.9-2.2-12.5-6.7-17s-10.1-6.7-17-6.7H121.2c-6.9 0-12.5 2.2-17 6.7s-6.7 10.1-6.7 17v51.5z m822.4 228c-4.5-4.5-10.1-6.7-17-6.7H121.2c-6.9 0-12.5 2.2-17 6.7s-6.7 10.1-6.7 17v51.5c0 6.9 2.2 12.5 6.7 17s10.1 6.7 17 6.7h781.7c6.9 0 12.5-2.2 17-6.7s6.7-10.1 6.7-17v-51.5c-0.1-6.9-2.3-12.6-6.7-17z m6.6 313.4c0-6.9-2.2-12.5-6.7-17s-10.1-6.7-17-6.7H121.1c-6.9 0-12.5 2.2-17 6.7s-6.7 10.1-6.7 17v51.5c0 6.9 2.2 12.5 6.7 17s10.1 6.7 17 6.7h781.7c6.9 0 12.5-2.2 17-6.7s6.7-10.1 6.7-17v-51.5z" p-id="68907"></path></svg>