<?xml version="1.0" standalone="no"?><!DOCTYPE svg PUBLIC "-//W3C//DTD SVG 1.1//EN" "http://www.w3.org/Graphics/SVG/1.1/DTD/svg11.dtd"><svg t="1504590829466" class="icon" style="" viewBox="0 0 1024 1024" version="1.1" xmlns="http://www.w3.org/2000/svg" p-id="1018" xmlns:xlink="http://www.w3.org/1999/xlink" width="200" height="200"><defs><style type="text/css"></style></defs><path d="M947.2 165.236364C791.272727 172.218182 514.327273 0 514.327273 0S267.636364 148.945455 76.8 165.236364c-13.963636 76.8-39.563636 293.236364 53.527273 460.8C256 849.454545 509.672727 1024 509.672727 1024s332.8-204.8 404.945455-442.181818c72.145455-239.709091 41.890909-346.763636 32.581818-416.581818z m-200.145455 256l-228.072727 228.072727c-4.654545 4.654545-11.636364 9.309091-18.618182 9.309091-13.963636 6.981818-30.254545 4.654545-41.890909-6.981818l-116.363636-116.363637c-13.963636-13.963636-13.963636-37.236364 0-51.2 13.963636-13.963636 37.236364-13.963636 51.2 0l95.418182 95.418182 209.454545-209.454545c13.963636-13.963636 37.236364-13.963636 51.2 0 11.636364 13.963636 11.636364 37.236364-2.327273 51.2z" p-id="1019"></path></svg>