<?xml version="1.0" standalone="no"?><!DOCTYPE svg PUBLIC "-//W3C//DTD SVG 1.1//EN" "http://www.w3.org/Graphics/SVG/1.1/DTD/svg11.dtd"><svg t="1501644836234" class="icon" style="" viewBox="0 0 1024 1024" version="1.1" xmlns="http://www.w3.org/2000/svg" p-id="7078" xmlns:xlink="http://www.w3.org/1999/xlink" width="200" height="200"><defs><style type="text/css"></style></defs><path d="M178.260201 474.65823C172.425501 609.363862 301.213549 605.460078 301.213549 605.460078l3.903784 197.125252 33.205191 21.45393 89.790111 0 21.45086-27.286583L449.563496 613.309601l62.460551 0L512.024047 316.566729 318.760625 316.566729C318.760625 316.566729 184.136855 340.034459 178.260201 474.65823L178.260201 474.65823z" p-id="7079"></path><path d="M552.952898 316.566729l58.602813 0 0 298.670717-58.602813 0L552.952898 316.566729 552.952898 316.566729z" p-id="7080"></path><path d="M804.81811 189.711643c-23.46773 1.933985-150.280862 105.406272-150.280862 105.406272l0 345.433245c0 0 119.049564 80.052651 144.363278 97.641681 25.395576 17.545029 39.121752-23.465684 39.121752-23.465684L838.022278 219.01305C838.022278 219.01305 828.283794 187.780728 804.81811 189.711643L804.81811 189.711643z" p-id="7081"></path></svg>