<?xml version="1.0" standalone="no"?><!DOCTYPE svg PUBLIC "-//W3C//DTD SVG 1.1//EN" "http://www.w3.org/Graphics/SVG/1.1/DTD/svg11.dtd"><svg t="1501644740736" class="icon" style="" viewBox="0 0 1024 1024" version="1.1" xmlns="http://www.w3.org/2000/svg" p-id="4972" xmlns:xlink="http://www.w3.org/1999/xlink" width="200" height="200"><defs><style type="text/css"></style></defs><path d="M534.71 591.08c20.262 0 36.84-16.579 36.84-36.84 0-20.261-16.578-36.839-36.84-36.839H229.765c-20.261 0-36.839 16.578-36.839 36.839s16.578 36.84 36.839 36.84H534.71zM232.29 775.928c-25.13 0-48.851-9.882-66.796-27.827-17.945-17.943-27.827-41.666-27.827-66.794v-28.83c0-20.345-16.493-36.839-36.839-36.839s-36.839 16.494-36.839 36.84v28.829c0 92.802 75.499 168.3 168.3 168.3h431.839c-19.661-21.176-35.292-46.139-45.682-73.678H232.29z" fill="" p-id="4973"></path><path d="M790.059 174.964h-557.77c-92.801 0-168.3 75.498-168.3 168.3v187.801c0 20.346 16.494 36.84 36.84 36.84s36.838-16.494 36.838-36.84v-93.482h747.014v68.722c27.474 10.115 52.433 25.43 73.678 44.759v-207.8c0-92.802-75.499-168.3-168.3-168.3z m94.622 188.941H137.667v-20.642c0-25.13 9.882-48.85 27.827-66.795s41.666-27.827 66.795-27.827h557.77c25.13 0 48.85 9.882 66.795 27.827 17.944 17.944 27.826 41.666 27.826 66.795v20.642z" fill="" p-id="4974"></path><path d="M805.886 542.984c-84.773 0-153.496 68.722-153.496 153.496s68.723 153.496 153.496 153.496 153.496-68.723 153.496-153.496-68.722-153.496-153.496-153.496z m92.098 134.347c0 6.376-5.216 11.591-11.591 11.591h-60.794v19.318h60.794c6.375 0 11.59 5.216 11.59 11.591v12.143c0 6.375-5.215 11.591-11.59 11.591h-60.794v64.027c0 10.93-8.941 19.87-19.87 19.87s-19.87-8.94-19.87-19.87v-64.027h-60.48c-6.374 0-11.59-5.216-11.59-11.591v-12.143c0-6.375 5.216-11.59 11.59-11.59h60.48v-19.319h-60.48c-6.374 0-11.59-5.215-11.59-11.59v-12.143c0-6.375 5.216-11.591 11.59-11.591h40.547l-40.954-40.955c-4.508-4.507-4.508-11.884 0-16.392l6.527-6.528c4.508-4.507 11.885-4.507 16.393 0l57.588 57.589 57.589-57.589c4.507-4.507 11.884-4.507 16.392 0l6.528 6.528c4.507 4.508 4.507 11.885 0 16.392l-40.955 40.955h41.359c6.375 0 11.59 5.216 11.59 11.59v12.143z" fill="" p-id="4975"></path></svg>