<?xml version="1.0" standalone="no"?><!DOCTYPE svg PUBLIC "-//W3C//DTD SVG 1.1//EN" "http://www.w3.org/Graphics/SVG/1.1/DTD/svg11.dtd"><svg t="1513586335252" class="icon" style="" viewBox="0 0 1024 1024" version="1.1" xmlns="http://www.w3.org/2000/svg" p-id="46044" xmlns:xlink="http://www.w3.org/1999/xlink" width="200" height="200"><defs><style type="text/css"></style></defs><path d="M512 0C229.23264 0 0 229.23264 0 512s229.23264 512 512 512c282.74688 0 512-229.23264 512-512S794.76736 0 512 0z m-42.1888 345.16992a61.44 61.44 0 0 1 86.87616 0l28.99968 28.95872a20.45952 20.45952 0 0 0 28.95872 0L681.55392 307.2H634.88v-40.96h122.88v122.88h-40.96v-59.26912l-73.19552 73.23648a61.50144 61.50144 0 0 1-86.91712 0l-28.95872-28.9792a20.48 20.48 0 0 0-28.95872 0l-86.89664 86.89664-28.95872-28.95872 86.89664-86.87616zM675.84 563.2v102.4a10.24 10.24 0 0 1-10.24 10.24h-20.48a10.24 10.24 0 0 1-10.24-10.24v-102.4a10.24 10.24 0 0 1 10.24-10.24h20.48a10.24 10.24 0 0 1 10.24 10.24z m-122.88-81.92v184.32a10.24 10.24 0 0 1-10.24 10.24h-20.48a10.24 10.24 0 0 1-10.24-10.24v-184.32a10.24 10.24 0 0 1 10.24-10.24h20.48a10.24 10.24 0 0 1 10.24 10.24z m-122.88 81.92v102.4a10.24 10.24 0 0 1-10.24 10.24h-20.48a10.24 10.24 0 0 1-10.24-10.24v-102.4a10.24 10.24 0 0 1 10.24-10.24h20.48a10.24 10.24 0 0 1 10.24 10.24z m348.16 225.28a10.24 10.24 0 0 1-10.24 10.24H368.64a122.88 122.88 0 0 1-122.88-122.88V276.48a10.24 10.24 0 0 1 10.24-10.24h20.48a10.24 10.24 0 0 1 10.24 10.24V675.84a81.92 81.92 0 0 0 81.92 81.92h399.36a10.24 10.24 0 0 1 10.24 10.24v20.48z" p-id="46045"></path></svg>