<?xml version="1.0" standalone="no"?><!DOCTYPE svg PUBLIC "-//W3C//DTD SVG 1.1//EN" "http://www.w3.org/Graphics/SVG/1.1/DTD/svg11.dtd"><svg t="1515143349005" class="icon" style="" viewBox="0 0 1024 1024" version="1.1" xmlns="http://www.w3.org/2000/svg" p-id="2660" xmlns:xlink="http://www.w3.org/1999/xlink" width="200" height="200"><defs><style type="text/css"></style></defs><path d="M606.4 403.2c-1.6 6.4-3.2 12.8-6.4 17.6 11.2 0 22.4 1.6 33.6 4.8 88 24 136 97.6 113.6 179.2-12.8 48-46.4 86.4-92.8 105.6-24 9.6-35.2 38.4-25.6 62.4 9.6 24 38.4 35.2 62.4 25.6 72-30.4 126.4-92.8 147.2-169.6 36.8-136-43.2-260.8-180.8-297.6-24-6.4-46.4-9.6-70.4-8 6.4 8 11.2 17.6 14.4 27.2 3.2 9.6 4.8 20.8 4.8 32 1.6 8 1.6 14.4 0 20.8z m-182.4 19.2c-9.6 0-19.2 3.2-28.8 4.8-88 24-136 97.6-113.6 179.2 12.8 48 46.4 86.4 92.8 105.6 24 9.6 35.2 38.4 25.6 62.4-9.6 24-38.4 35.2-62.4 25.6-72-30.4-126.4-92.8-147.2-169.6-36.8-136 43.2-260.8 180.8-297.6 22.4-6.4 43.2-8 65.6-8-12.8 16-19.2 36.8-19.2 59.2-1.6 12.8 1.6 25.6 6.4 38.4z m136-230.4v32h-96v-32h96z m0-16h-96v-16c0-9.6 6.4-16 16-16h64c9.6 0 16 6.4 16 16v16z m0 124.8c-14.4-8-30.4-12.8-48-12.8s-33.6 4.8-48 12.8V240h96v60.8z m-48 147.2c-35.2 0-64-28.8-64-64s28.8-64 64-64 64 28.8 64 64-28.8 64-64 64z" p-id="2661"></path></svg>