<?xml version="1.0" standalone="no"?><!DOCTYPE svg PUBLIC "-//W3C//DTD SVG 1.1//EN" "http://www.w3.org/Graphics/SVG/1.1/DTD/svg11.dtd"><svg t="1515144564615" class="icon" style="" viewBox="0 0 1024 1024" version="1.1" xmlns="http://www.w3.org/2000/svg" p-id="2885" xmlns:xlink="http://www.w3.org/1999/xlink" width="200" height="200"><defs><style type="text/css"></style></defs><path d="M936.0896 416.768l58.41792 33.728-152.832 264.70656-58.41664-33.728zM34.07616 448.67456l59.00416-32.69632 148.15488 267.36512-59.00288 32.69504zM666.624 276.736l-0.896-24.576-9.088-25.6-21.376-29.824-21.12-11.904-16.896-23.04-40.192-17.92V10.624h-111.36L437.76 142.72l-33.28 31.744-41.344 54.656-24.192 36.736L101.12 409.984l30.72 57.216h9.472l212.352-115.2 11.136 24.704 39.808 53.76 70.272 29.568h82.304l70.4-35.2 42.624-74.496L886.144 467.2l12.032-13.696 15.36-41.088-246.912-135.68z m-155.008 99.968c-38.784 0-70.272-31.488-70.272-70.272s31.488-70.272 70.272-70.272 70.272 31.488 70.272 70.272-31.36 70.272-70.272 70.272z" fill="" p-id="2886"></path><path d="M997.632 446.08c-0.64-2.048-1.92-3.84-3.84-4.864L932.224 407.04c-0.64-2.048-1.92-3.712-3.84-4.736L677.76 264.448c-13.44-61.568-52.864-105.472-110.976-124.544V11.264c0-4.48-3.84-7.808-8.32-7.808h-112.512c-4.48 0-8.192 3.328-8.192 7.808v131.456c-50.56 22.912-87.424 69.376-98.816 123.136L95.488 402.176c-2.176 1.152-3.584 3.328-3.968 5.76l-59.776 33.28c-1.92 1.024-3.2 2.816-3.84 4.864-0.64 2.048-0.384 4.224 0.768 6.144l148.736 267.264c1.024 1.92 2.816 3.2 4.864 3.84 0.768 0.256 1.408 0.256 2.176 0.256 1.408 0 2.688-0.384 3.968-1.024l37.248-20.736c-5.12 20.224-7.68 40.576-7.68 60.416 0 141.184 132.736 256.128 296.064 256.128 163.2 0 296.064-114.944 296.064-256.128 0-19.456-2.56-39.296-7.296-59.008l34.688 19.328c1.152 0.64 2.56 1.024 3.968 1.024 0.768 0 1.536-0.128 2.176-0.256 2.048-0.64 3.84-1.92 4.864-3.84l148.736-267.264c0.64-1.92 0.896-4.096 0.384-6.144zM350.08 278.144c2.048-1.152 3.584-3.2 3.968-5.504 9.728-51.072 46.976-97.024 94.976-117.248 2.944-1.28 4.864-4.224 4.864-7.424V19.584h95.616v126.208c0 3.584 2.816 6.656 6.144 7.68 56.832 16.64 94.976 58.496 106.752 117.76 0.512 2.304 1.92 4.352 3.968 5.504l246.912 135.552-26.24 47.744-212.992-118.4c-2.176-1.152-4.736-1.28-6.912-0.384-2.304 0.896-3.968 2.816-4.608 5.12-19.456 66.56-81.536 113.024-150.912 113.024-68.992 0-130.944-46.08-150.784-112-0.64-2.304-2.432-4.224-4.608-5.12-2.304-0.896-4.864-0.768-6.912 0.384l-211.456 117.376-27.136-47.744 239.36-134.144z m534.016 198.528l-98.56 177.152c-8.96-20.096-20.352-39.808-34.048-58.624 14.592-14.208 23.168-33.92 23.168-54.272 0-41.856-34.048-75.904-75.904-75.904-24.064 0-46.848 11.776-61.056 30.976-25.6-13.184-52.736-22.144-80.512-26.88 53.76-14.848 98.432-55.296 117.504-108.928l209.408 116.48z m-416.768-7.04c-25.216 4.48-49.92 12.672-73.6 24.448-14.336-18.304-36.096-29.056-59.392-29.056-41.856 0-75.904 34.048-75.904 75.904 0 19.072 7.296 37.376 20.096 51.328-15.104 20.352-27.648 41.856-37.248 63.872l-99.968-179.712 207.104-115.072c19.584 53.632 64.768 93.824 118.912 108.288zM187.52 704.64L46.592 451.328l47.616-26.496 139.392 250.496c-0.512 1.536-1.024 2.944-1.536 4.48l-44.544 24.832z m606.336 57.6c0 132.352-125.568 240-279.936 240s-279.936-107.648-279.936-240c0-23.552 3.968-47.616 11.392-71.424l4.608-2.56c3.84-2.176 5.248-7.04 3.072-10.88l-1.792-3.328c10.368-26.88 25.344-53.12 44.288-77.696 2.56-3.328 2.176-8.064-1.024-10.88-12.8-11.392-20.096-27.648-20.096-44.544 0-32.896 26.88-59.776 59.776-59.776 20.352 0 39.04 10.368 50.176 27.648 2.304 3.456 6.784 4.736 10.496 2.816 37.504-19.84 77.44-29.824 118.784-29.824 42.112 0 84.608 11.008 122.88 32 3.712 2.048 8.576 0.768 10.752-2.944 10.752-18.176 30.464-29.568 51.456-29.568 33.024 0 59.776 26.88 59.776 59.776 0 18.048-8.576 35.584-22.912 46.848-3.456 2.688-4.096 7.68-1.408 11.136 17.536 23.04 31.36 47.744 41.344 72.832l-3.072 5.632c-2.176 3.84-0.768 8.704 3.072 10.88l7.296 4.096c7.296 23.168 11.008 46.848 11.008 69.76z m44.16-57.6L796.16 681.344c-0.896-2.816-1.92-5.632-2.944-8.448l137.984-248.064 47.616 26.496-140.8 253.312z" fill="" p-id="2887"></path><path d="M511.616 392.832c47.616 0 86.272-38.784 86.272-86.272S559.232 220.16 511.616 220.16s-86.272 38.784-86.272 86.272 38.784 86.4 86.272 86.4z m0-156.544c38.784 0 70.272 31.488 70.272 70.272s-31.488 70.272-70.272 70.272c-38.784 0-70.272-31.488-70.272-70.272s31.616-70.272 70.272-70.272z m196.864 350.976c0.64-2.56 2.56-4.608 4.992-5.504 17.28-6.272 28.928-22.656 28.928-40.96 0-24.064-19.584-43.648-43.776-43.648-20.352 0-38.272 14.464-42.624 34.432-0.512 2.56-2.304 4.736-4.736 5.632-2.432 1.024-5.248 0.768-7.424-0.64-78.336-49.792-177.024-50.816-255.872-2.816-2.176 1.28-4.864 1.536-7.168 0.64-2.304-0.896-4.096-2.816-4.736-5.248-5.248-18.816-22.528-32-41.856-32-24.064 0-43.776 19.584-43.776 43.648 0 17.024 10.112 32.512 25.6 39.68 2.304 1.024 3.968 3.072 4.48 5.632 0.512 2.432-0.128 5.12-1.792 6.912-43.776 50.688-68.864 112.384-68.864 169.216 0 123.52 118.4 224 263.808 224s263.808-100.48 263.808-224c0-56.192-24.576-117.248-67.584-167.68-1.408-1.92-2.048-4.736-1.408-7.296z m-194.56 382.848c-136.576 0-247.808-93.312-247.808-207.872 0-52.992 23.68-110.848 64.896-158.592 4.992-5.76 6.912-13.568 5.376-20.864-1.536-7.424-6.656-13.696-13.568-16.768-9.856-4.48-16.256-14.336-16.256-25.088 0-15.232 12.416-27.648 27.648-27.648 12.16 0 23.04 8.32 26.368 20.224 2.048 7.296 7.424 13.184 14.336 15.872 6.912 2.816 14.976 2.048 21.376-1.792 73.6-44.928 165.504-43.904 238.848 2.688 6.528 4.096 14.976 4.864 22.144 1.92 7.296-3.072 12.672-9.472 14.336-17.152 2.688-12.544 14.08-21.76 27.008-21.76 15.232 0 27.648 12.416 27.648 27.648 0 11.52-7.424 21.888-18.304 25.856-7.424 2.688-13.056 8.832-15.104 16.512s-0.128 15.744 4.992 21.888c40.576 47.488 63.744 104.832 63.744 157.312 0.128 114.432-111.104 207.616-247.68 207.616z" fill="" p-id="2888"></path><path d="M661.504 627.328c-17.408-22.4-42.368-35.84-66.688-35.84-13.056 0-24.96 3.968-34.688 11.52-28.416 22.016-29.056 68.736-1.536 104.192 2.944 3.84 6.272 7.424 9.728 10.88-1.536-0.384-3.2-0.512-4.864-0.512-13.312 0-24.064 10.88-24.064 24.064 0 9.216-7.552 16.768-16.896 16.768s-16.896-7.552-16.896-16.768c0-13.312-10.88-24.064-24.064-24.064s-24.064 10.88-24.064 24.064c0 35.84 29.184 65.024 65.024 65.024 35.84 0 65.024-29.184 65.024-65.024 0-3.84-0.896-7.424-2.432-10.496 12.544 7.68 26.368 11.904 40.064 11.904 13.056 0 24.96-3.968 34.688-11.52 14.08-10.88 21.76-27.904 21.76-48 0.256-19.456-7.04-39.296-20.096-56.192zM522.752 790.656c-27.008 0-49.024-22.016-49.024-49.024 0-4.48 3.584-8.064 8.064-8.064s8.064 3.584 8.064 8.064c0 18.176 14.72 32.896 32.896 32.896s32.896-14.72 32.896-32.896c0-4.48 3.584-8.064 8.064-8.064s8.064 3.584 8.064 8.064c-0.128 27.008-22.016 49.024-49.024 49.024z m127.488-71.808c-6.784 5.248-15.36 8.064-24.832 8.064-19.072 0-39.808-11.392-54.016-29.568-22.144-28.416-22.656-65.024-1.408-81.664 6.784-5.248 15.36-8.064 24.832-8.064 19.2 0 39.808 11.392 54.016 29.568 10.88 14.08 16.896 30.464 16.896 46.336 0 14.976-5.504 27.52-15.488 35.328zM455.168 640.896c-11.776-9.216-31.488-4.736-42.496 9.344-11.264 14.592-10.624 34.048 1.408 43.52 4.224 3.328 9.472 4.992 15.232 4.992 9.984 0 20.224-5.376 27.264-14.464 11.264-14.592 10.624-34.048-1.408-43.392z m-11.264 33.536c-5.632 7.168-15.104 10.24-19.968 6.528-4.992-3.84-4.352-13.44 1.408-20.864 3.968-5.12 9.472-8.192 14.592-8.192 2.048 0 3.968 0.512 5.376 1.664 4.992 3.84 4.352 13.44-1.408 20.864z" fill="" p-id="2889"></path><path d="M579.072 639.744c-10.88 8.448-11.52 25.728-1.408 38.656 6.272 7.936 15.232 12.672 24.192 12.672 5.12 0 9.856-1.536 13.696-4.608 10.88-8.448 11.52-25.728 1.408-38.656-9.856-12.416-27.392-16.256-37.888-8.064z m26.624 34.176c-3.712 2.944-11.008 0.256-15.232-5.376-4.864-6.272-4.736-13.568-1.408-16.128 1.024-0.768 2.304-1.152 3.84-1.152 3.968 0 8.32 2.56 11.52 6.528 4.736 6.272 4.48 13.568 1.28 16.128z" fill="" p-id="2890"></path><path d="M776.96 649.856l-33.28-57.984 25.6-42.624-14.464-48.64-37.504-29.056-40.064 1.664-31.744 24.704-6.784 6.016-75.136-27.264H480L406.656 495.36l-17.024 6.784-31.616-23.936-38.4-2.56-32.384 13.696-17.92 35.84 1.664 40.96 12.8 17.92 3.456 6.016-35.072 58.88-23.04 83.584 1.664 75.136 33.28 77.696 58.88 64.896 116.864 53.76 109.184 5.12 89.6-23.936 88.704-56.32 63.104-91.264 10.24-88.704-23.68-99.072zM748.8 851.2l-64.896 73.344-70.016 34.944-70.784 16.256-86.144-3.456-77.696-25.6-67.456-53.76-40.064-59.648-15.36-65.664 16.256-83.584 54.656-90.496V579.84l-22.144-15.36-7.68-35.84 26.496-21.376h28.16l23.04 32.384 17.024 1.664 36.736-17.024 52.864-15.36 76.8 0.896 57.216 20.48 39.296 16.256 8.576-15.36 18.816-23.04 15.36-2.56 21.376 5.12 12.8 11.904 2.56 20.48-12.8 23.04-14.464 8.576-8.576 10.24 9.344 18.816 40.064 62.336 21.376 81.92L748.8 851.2z" fill="" p-id="2891"></path></svg>